<?xml version="1.0" encoding="UTF-8" standalone="no"?>
<!-- Uploaded to: SVG Repo, www.svgrepo.com, Transformed by: SVG Repo Mixer Tools -->

<svg
   width="800px"
   height="800px"
   viewBox="0 0 64 64"
   id="TwoTone"
   fill="#000000"
   version="1.1"
   sodipodi:docname="book-education-furniture-svgrepo-com.svg"
   inkscape:version="1.3.2 (091e20e, 2023-11-25)"
   xmlns:inkscape="http://www.inkscape.org/namespaces/inkscape"
   xmlns:sodipodi="http://sodipodi.sourceforge.net/DTD/sodipodi-0.dtd"
   xmlns="http://www.w3.org/2000/svg"
   xmlns:svg="http://www.w3.org/2000/svg">
  <defs
     id="defs29" />
  <sodipodi:namedview
     id="namedview29"
     pagecolor="#ffffff"
     bordercolor="#000000"
     borderopacity="0.25"
     inkscape:showpageshadow="2"
     inkscape:pageopacity="0.0"
     inkscape:pagecheckerboard="0"
     inkscape:deskcolor="#d1d1d1"
     inkscape:zoom="0.50928216"
     inkscape:cx="197.33658"
     inkscape:cy="523.28556"
     inkscape:window-width="1440"
     inkscape:window-height="900"
     inkscape:window-x="0"
     inkscape:window-y="0"
     inkscape:window-maximized="0"
     inkscape:current-layer="TwoTone" />
  <g
     id="SVGRepo_bgCarrier"
     stroke-width="0" />
  <g
     id="SVGRepo_tracerCarrier"
     stroke-linecap="round"
     stroke-linejoin="round" />
  <g
     id="SVGRepo_iconCarrier">
    <title
       id="title1" />
    <desc
       id="desc1" />
    <g
       data-name="Stroke copy 3"
       id="Stroke_copy_3">
      <path
         d="M15,8H61V3H3V61H61V52H12a4,4,0,0,1-4-4V42a4,4,0,0,1,4-4H61V22H15a4,4,0,0,1-4-4V12A4,4,0,0,1,15,8Z"
         style="fill:#b0e2f7"
         id="path1" />
      <rect
         height="4"
         style="fill:#4893cf"
         width="58"
         x="3"
         y="30"
         id="rect1" />
      <rect
         height="4"
         style="fill:#4893cf"
         width="58"
         x="3"
         y="57"
         id="rect2" />
      <rect
         height="22"
         style="fill:#4893cf"
         width="8"
         x="7"
         y="8"
         id="rect3" />
      <rect
         height="18"
         style="fill:#ce9f55"
         width="6"
         x="15"
         y="12"
         id="rect4" />
      <rect
         height="22"
         style="fill:#4893cf"
         width="6"
         x="21"
         y="8"
         id="rect5" />
      <rect
         height="16"
         style="fill:#ce9f55"
         width="8"
         x="27"
         y="14"
         id="rect6" />
      <rect
         height="14"
         style="fill:#4893cf"
         width="6"
         x="35"
         y="16"
         id="rect7" />
      <rect
         height="20"
         style="fill:#ce9f55"
         width="4"
         x="41"
         y="10"
         id="rect8" />
      <rect
         height="22"
         style="fill:#4893cf"
         width="8"
         x="53"
         y="8"
         id="rect9" />
      <rect
         height="4"
         style="fill:#b0e2f7"
         width="8"
         x="7"
         y="13"
         id="rect10" />
      <rect
         height="4"
         style="fill:#b0e2f7"
         width="8"
         x="53"
         y="12"
         id="rect11" />
      <rect
         height="4"
         style="fill:#b0e2f7"
         width="6"
         x="21"
         y="18"
         id="rect12" />
      <rect
         height="6"
         style="fill:#ce9f55"
         width="18"
         x="7"
         y="51"
         id="rect13" />
      <rect
         height="4"
         style="fill:#b0e2f7"
         width="16"
         x="7"
         y="47"
         id="rect14" />
      <rect
         height="6"
         style="fill:#4893cf"
         width="16"
         x="12"
         y="41"
         id="rect15" />
      <rect
         height="19"
         style="fill:#ce9f55"
         width="6"
         x="33"
         y="38"
         id="rect16" />
      <rect
         height="12"
         style="fill:#4893cf"
         width="6"
         x="39"
         y="45"
         id="rect17" />
      <rect
         height="16"
         style="fill:#ce9f55"
         width="4"
         x="45"
         y="41"
         id="rect18" />
      <rect
         height="12"
         style="fill:#4893cf"
         width="8"
         x="49"
         y="45"
         id="rect19" />
      <rect
         height="4"
         style="fill:#b0e2f7"
         width="6"
         x="33"
         y="42"
         id="rect20" />
      <rect
         height="6"
         style="fill:#4893cf"
         width="4"
         x="16"
         y="51"
         id="rect21" />
      <path
         d="M52,57V54a1,1,0,0,1,2,0v3Z"
         style="fill:#aae1f9"
         id="path21" />
      <rect
         height="2"
         style="fill:#aae1f9"
         width="8"
         x="49"
         y="48"
         id="rect22" />
      <rect
         height="2"
         style="fill:#57b7eb"
         width="4"
         x="49"
         y="48"
         id="rect23" />
      <path
         d="M53,53a1,1,0,0,0-1,1v3h2V55.62A4,4,0,0,1,53,53Z"
         style="fill:#57b7eb"
         id="path23" />
    </g>
    <g
       data-name="Stroke Close copy 3"
       id="Stroke_Close_copy_3">
      <path
         d="M61,33H3a1,1,0,0,0,0,2H61a1,1,0,0,0,0-2Z"
         style="fill:#3b8686"
         id="path24" />
      <path
         d="M61,56H58V45a1,1,0,0,0-1-1H50V41a1,1,0,0,0-1-1H45a1,1,0,0,0-1,1v3H40V39a1,1,0,0,0-1-1H33a1,1,0,0,0-1,1V56H26V51a1,1,0,0,0-1-1H24V48h4a1,1,0,0,0,1-1V41a1,1,0,0,0-1-1H12a1,1,0,0,0-1,1v5H7a1,1,0,0,0-1,1v9H3a1,1,0,0,0,0,2H61a1,1,0,0,0,0-2ZM56,46v2H50V46ZM34,43h4v2H34Zm4-3v1H34V40ZM13,42H27v4H13ZM8,48H22v2H8Zm0,4h7v4H8Zm9,4V52h2v4Zm4,0V52h3v4Zm13-9h4v9H34Zm6-1h4V56H40Zm6-1V42h2V56H46Zm8,11V54a1,1,0,0,0-2,0v2H50V50h6v6Z"
         style="fill:#3b8686"
         id="path25" />
      <path
         d="M61,60H3a1,1,0,0,0,0,2H61a1,1,0,0,0,0-2Z"
         style="fill:#3b8686"
         id="path26" />
      <path
         d="M61,7H53a1,1,0,0,0-1,1V29H46V10a1,1,0,0,0-1-1H41a1,1,0,0,0-1,1v5H36V14a1,1,0,0,0-1-1H28V8a1,1,0,0,0-1-1H21a1,1,0,0,0-1,1v3H16V8a1,1,0,0,0-1-1H7A1,1,0,0,0,6,8V29H3a1,1,0,0,0,0,2H61a1,1,0,0,0,1-1V8A1,1,0,0,0,61,7Zm-7,6h6v2H54Zm6-4v2H54V9ZM22,19h4v2H22ZM22,9h4v8H22V9ZM8,14h6v2H8Zm6-5v3H8V9ZM8,18h6V29H8Zm8-1V13h4V29H16Zm6,6h4v6H22Zm6-1V15h2v4a1,1,0,0,0,2,0V15h2V29H32V26a1,1,0,0,0-2,0v3H28Zm8-5h4V29H36Zm6,12V11h2V29Zm12,0V17h6V29Z"
         style="fill:#3b8686"
         id="path27" />
      <path
         d="M57,22a1,1,0,0,0-1,1v3a1,1,0,0,0,2,0V23A1,1,0,0,0,57,22Z"
         style="fill:#3b8686"
         id="path28" />
      <path
         d="M3,4H61a1,1,0,0,0,0-2H3A1,1,0,0,0,3,4Z"
         style="fill:#3b8686"
         id="path29" />
    </g>
  </g>
  <path
     style="fill:#784421;fill-rule:evenodd;stroke:#784421;stroke-width:1.0465"
     d="M 37.673909,737.78072 V 725.746 H 399.76204 761.85016 v 12.03472 12.03472 H 399.76204 37.673909 Z"
     id="path30"
     transform="scale(0.08)" />
  <path
     style="fill:#784421;fill-rule:evenodd;stroke:#784421;stroke-width:1.0465"
     d="M 37.673909,568.77138 V 437.95919 H 399.76204 761.85016 v 18.31371 18.31371 H 452.83003 c -336.45005,0 -314.07484,-0.3905 -326.07543,5.69066 -6.99782,3.54607 -15.64595,11.75357 -19.98504,18.9668 -6.34097,10.54111 -7.223763,16.24802 -7.291973,47.1397 l -0.06033,27.32102 -8.244427,0.56509 c -9.363372,0.64178 -12.729821,2.31056 -15.211607,7.54053 -1.452563,3.06105 -1.659905,10.63518 -1.659905,60.63557 v 57.13758 H 55.987615 37.673909 Z"
     id="path31"
     transform="scale(0.08)" />
  <path
     style="fill:#784421;fill-rule:evenodd;stroke:#784421;stroke-width:1.0465"
     d="m 325.46072,674.99087 v -24.59269 h 37.15066 37.15066 v 24.59269 24.59269 h -37.15066 -37.15066 z"
     id="path32"
     transform="scale(0.08)" />
  <path
     style="fill:#784421;fill-rule:evenodd;stroke:#784421;stroke-width:1.61698"
     d="m 726.02518,675.09023 v -24.25474 h 17.78681 17.78681 v 24.25474 24.25474 h -17.78681 -17.78681 z"
     id="path33"
     transform="scale(0.08)" />
  <path
     style="fill:#784421;fill-rule:evenodd;stroke:#784421;stroke-width:1.61698"
     d="m 575.6458,318.54557 v -42.85004 h 36.38211 36.38211 v 42.85004 42.85004 H 612.02791 575.6458 Z"
     id="path34"
     transform="scale(0.08)" />
  <path
     style="fill:#784421;fill-rule:evenodd;stroke:#784421;stroke-width:1.61698"
     d="M 38.807582,206.16528 V 50.934951 H 400.20319 761.5988 V 68.72176 86.508568 h -51.52538 c -49.67841,0 -51.6781,0.120131 -55.7859,3.351326 -2.34328,1.843229 -4.26052,4.753798 -4.26052,6.46793 0,3.054993 -2.95297,3.116605 -149.37472,3.116605 H 351.27757 l -1.92245,-4.641193 c -3.19225,-7.706764 -6.69394,-8.294668 -49.40485,-8.294668 -42.71091,0 -46.2126,0.587904 -49.40485,8.294668 l -1.92245,4.641193 h -23.70406 -23.70405 l -1.82514,-4.835326 c -1.0675,-2.828112 -3.67431,-5.538379 -6.27974,-6.528963 -2.8754,-1.093226 -23.61505,-1.528693 -58.5022,-1.228359 l -54.047593,0.465279 -3.089494,3.817346 c -2.985449,3.68879 -3.089494,8.303859 -3.089494,137.039264 V 361.39561 H 56.59439 38.807582 Z"
     id="path35"
     transform="scale(0.08)" />
  <path
     style="fill:#784421;fill-rule:evenodd;stroke:#784421;stroke-width:1.61698"
     d="m 326.63048,675.09023 v -24.25474 h 36.38211 36.38211 v 24.25474 24.25474 h -36.38211 -36.38211 z"
     id="path36"
     transform="scale(0.08)" />
  <path
     style="fill:#28170b;fill-rule:evenodd;stroke:#784421;stroke-width:1.62595"
     d="m 30.006143,720.36913 c -4.482266,-4.48225 -5.122446,-10.09627 -1.688042,-14.80315 2.031697,-2.78446 4.952,-3.25193 24.795717,-3.96915 l 22.492792,-0.81298 0.812975,-59.88609 c 0.772405,-56.89769 0.970472,-60.00118 3.969152,-62.19253 2.428445,-1.77464 9.45784,-2.30645 30.486533,-2.30645 h 27.33036 v -33.83833 c 0,-31.56853 0.2177,-34.072 3.24548,-37.32193 1.78501,-1.91599 5.62631,-3.91748 8.53623,-4.44777 2.90991,-0.53029 50.02961,-0.7469 104.71042,-0.48137 95.11559,0.46189 99.56779,0.61689 102.84125,3.5802 3.31294,2.99906 3.42158,4.45558 3.42158,45.86971 0,54.10542 3.27944,49.40277 -34.45151,49.40277 h -27.33454 v 12.80625 12.80625 l 8.91752,0.73951 c 15.4135,1.2782 15.33774,1.08247 15.84651,40.9417 l 0.43818,34.32808 38.39427,0.4354 38.39429,0.43538 -0.1845,-109.10166 -0.18448,-109.10166 4.56202,-3.93067 c 4.56168,-3.93036 4.56521,-3.93067 45.19399,-3.93067 h 40.63196 l 3.99095,3.99096 c 3.97832,3.97832 3.99097,4.09681 3.99097,37.39682 v 33.40585 h 26.01518 26.01518 v -20.43124 c 0,-11.23719 0.71623,-21.76955 1.59162,-23.40524 0.8754,-1.63569 3.91129,-3.78262 6.74642,-4.77095 6.55394,-2.28471 49.7392,-2.3539 56.23316,-0.0901 7.14586,2.49106 8.59649,7.429 8.59649,29.26265 v 19.43487 h 45.30728 c 43.31666,0 45.49478,0.14749 49.57461,3.35667 l 4.2673,3.35666 0.42331,71.84346 0.42334,71.84346 22.49278,0.81298 c 19.84373,0.71722 22.76403,1.18469 24.79572,3.96915 3.43441,4.70688 2.79423,10.3209 -1.68804,14.80315 l -3.99096,3.99098 H 399.98336 33.997107 Z M 188.61004,674.76867 v -25.2022 H 143.89645 99.182865 v 25.2022 25.20221 h 44.713585 44.71359 z m 50.04027,0.40649 -0.44884,-24.79572 -13.41407,-0.47224 -13.41408,-0.47224 v 25.26796 25.26796 h 13.86292 13.8629 z m 62.15018,-0.40649 v -25.2022 h -19.51138 -19.51138 v 25.2022 25.20221 h 19.51138 19.51138 z m 175.60245,-31.70599 v -56.90821 h -26.01517 -26.01518 v 56.90821 56.9082 h 26.01518 26.01517 z m 74.79364,-5.69082 V 574.77283 H 525.1814 499.16622 v 62.59903 62.59902 h 26.01518 26.01518 z m 48.77846,-25.20221 v -87.80122 h -13.00759 -13.00759 v 87.80122 87.80123 h 13.00759 13.00759 z m 50.4044,74.87014 c 0,-7.1121 0.83254,-14.75828 1.85007,-16.99152 2.17302,-4.76925 8.90967,-7.56455 13.83738,-5.74167 6.61129,2.44568 8.70178,7.78028 8.70178,22.2055 v 13.45878 h 13.00759 13.00759 v -38.2098 -38.20979 h -38.20979 -38.20979 v 38.20979 38.2098 h 13.00759 13.00758 z M 276.41126,612.16965 v -13.00759 h -88.6142 -88.614195 v 13.00759 13.00759 h 88.614195 88.6142 z m 424.37259,-24.38923 v -13.00759 h -38.20979 -38.20979 v 13.00759 13.00759 h 38.20979 38.20979 z M 338.19731,550.3696 v -26.02918 l -88.20771,0.42049 -88.20771,0.42049 -0.45316,23.50149 c -0.24923,12.92581 -0.0893,24.44972 0.35546,25.60869 0.64839,1.68966 18.21644,2.1072 88.66087,2.1072 h 87.85225 z m 138.20563,0.014 v -13.00758 h -26.01517 -26.01518 v 13.00758 13.00759 h 26.01518 26.01517 z m 0,-43.90061 v -6.50379 h -26.01517 -26.01518 v 6.50379 6.5038 h 26.01518 26.01517 z"
     id="path37"
     transform="scale(0.08)" />
  <path
     style="fill:#28170b;fill-rule:evenodd;stroke:#784421;stroke-width:0.880957"
     d="m 32.612977,773.25882 c -3.99328,-2.0063 -7.066116,-6.66233 -7.061925,-10.7004 0.0038,-3.63216 2.470084,-8.17063 5.529452,-10.17521 1.885901,-1.23569 38.390266,-1.3714 368.874066,-1.3714 330.4838,0 366.98817,0.13571 368.87407,1.3714 3.05937,2.00458 5.52568,6.54305 5.52945,10.17521 0.004,4.03807 -3.06865,8.6941 -7.06192,10.7004 -2.90399,1.45901 -22.29187,1.5403 -367.3416,1.5403 -345.049735,0 -364.437612,-0.0813 -367.341593,-1.5403 z"
     id="path38"
     transform="scale(0.08)" />
  <path
     style="fill:#28170b;fill-rule:evenodd;stroke:#784421;stroke-width:1.46974"
     d="m 33.069248,435.55669 c -7.434813,-4.07893 -9.005187,-13.18573 -3.212198,-18.62797 l 3.401652,-3.19568 H 400.06981 c 347.18393,0 366.97686,0.13762 369.90898,2.57205 5.01975,4.16769 5.51047,10.87565 1.16518,15.9274 l -3.68281,4.28159 -365.72622,0.32764 c -263.227,0.23582 -366.55003,-0.12432 -368.665692,-1.28503 z"
     id="path39"
     transform="scale(0.08)" />
  <path
     style="fill:#28170b;fill-rule:evenodd;stroke:#784421;stroke-width:0.917469"
     d="m 30.840602,384.79713 c -7.370818,-5.79788 -6.563228,-16.56536 1.530512,-20.4061 2.706376,-1.28425 6.434771,-1.53213 23.045035,-1.53213 h 19.81629 l 0.07413,-101.15093 c 0.08519,-116.24058 0.820663,-165.249821 2.526479,-168.355524 2.733189,-4.976198 1.159431,-4.840296 58.509352,-5.05258 58.77684,-0.217566 57.42778,-0.341566 61.13464,5.619262 1.96115,3.153652 2.08883,4.428474 2.37809,23.746242 l 0.30567,20.41368 h 25.15409 25.15408 v -20.50737 c 0,-19.843479 0.0679,-20.608291 2.09785,-23.624821 3.80216,-5.650106 5.01228,-5.797987 47.44547,-5.797987 41.6503,0 43.39351,0.194772 47.16201,5.269496 1.85696,2.500609 1.93151,3.729507 2.1846,36.010652 l 0.26204,33.42169 h 44.96886 c 48.63386,0 47.40232,-0.11866 52.21749,5.03112 2.04848,2.19083 2.32765,3.37708 2.6116,11.09679 l 0.31793,8.64374 h 25.09861 25.0986 l 0.27259,-32.79951 c 0.25125,-30.23218 0.408,-33.02316 2.00252,-35.65692 3.51885,-5.8123 3.80151,-5.85854 35.81196,-5.85854 h 29.00154 l 3.42704,3.14055 3.42703,3.14055 0.23934,121.6352 0.23933,121.63521 h 38.06499 38.06498 l 10e-4,-132.34487 c 10e-4,-124.17214 0.10049,-132.541244 1.60557,-135.524803 0.88228,-1.748962 3.04916,-4.019697 4.81529,-5.046078 3.12775,-1.817684 4.58116,-1.866148 55.96559,-1.866148 50.73662,0 52.86794,0.06864 55.7214,1.794627 6.15976,3.725867 5.74901,-6.827419 5.74901,147.707632 0,152.82608 0.3476,142.8923 -5.15148,147.21787 l -2.43573,1.91595 H 400.01638 33.276332 Z M 175.23653,293.59 V 224.32111 H 137.62031 100.0041 V 293.59 362.8589 h 37.61621 37.61622 z m 75.23244,-31.19393 V 161.93324 H 225.23858 200.00819 V 262.39607 362.8589 h 25.23039 25.23039 z m 75.01325,62.61724 -0.23954,-37.84559 h -25.23039 -25.2304 l -0.23954,37.84559 -0.23955,37.84559 h 25.70949 25.70948 z m 49.7625,18.09054 c 0,-22.12755 0.5431,-24.79856 5.67897,-27.92981 5.89151,-3.59195 13.3806,-1.81978 16.90403,4.00008 1.52908,2.52568 1.76541,5.2274 2.0356,23.2711 l 0.30567,20.41368 h 12.76826 12.76826 v -88.07701 -88.077 h -12.78242 -12.78241 l -0.29152,26.83596 c -0.25606,23.57252 -0.48865,27.19668 -1.91262,29.80221 -4.51798,8.26688 -17.76797,7.50091 -21.41941,-1.23823 -0.98401,-2.35505 -1.27241,-8.97852 -1.27241,-29.22261 V 186.70489 H 362.40016 349.5556 v 88.077 88.07701 h 12.84456 12.84456 z m 124.77576,-55.47739 v -75.23244 h -25.23039 -25.2304 v 75.23244 75.23244 h 25.2304 25.23039 z m 50.46078,-37.61622 V 137.16158 H 537.6367 524.79213 V 250.01024 362.8589 h 12.84457 12.84456 z m 200.00819,37.61622 V 212.39402 H 712.4145 674.33954 v 75.23244 75.23244 h 38.07496 38.07495 z M 325.70141,250.01024 v -12.84456 h -25.68912 -25.68913 v 12.84456 12.84456 h 25.68913 25.68912 z m -0.22153,-87.3889 0.2372,-50.23142 h -25.69696 -25.69696 v 49.84914 c 0,27.41703 0.28174,50.13088 0.62609,50.47522 0.34434,0.34435 11.80124,0.51638 25.45976,0.38228 l 24.83367,-0.24381 z M 175.23653,187.62236 V 174.7778 H 137.62031 100.0041 v 12.84456 12.84457 h 37.61621 37.61622 z M 750.48945,174.7778 V 161.93324 H 712.4145 674.33954 v 12.84456 12.84456 h 38.07496 38.07495 z M 175.23653,131.19803 V 112.38992 H 137.62031 100.0041 v 18.80811 18.80811 h 37.61621 37.61622 z m 575.25292,-5.96354 V 112.38992 H 712.4145 674.33954 v 12.84457 12.84456 h 38.07496 38.07495 z"
     id="path40"
     transform="scale(0.08)" />
  <path
     style="fill:#999999;fill-rule:evenodd;stroke:#784421;stroke-width:1.12593"
     d="m 187.18558,624.60884 88.66686,-0.29522 v -12.37157 -12.37157 l -88.66686,-0.29523 -88.666851,-0.29522 89.229821,-0.27456 89.22982,-0.27456 v 13.51114 13.51114 l -89.22982,-0.27457 -89.229821,-0.27456 z"
     id="path41"
     transform="scale(0.08)" />
  <path
     style="fill:#784421;fill-opacity:1;fill-rule:evenodd;stroke:#784421;stroke-width:1.34574;stroke-opacity:1"
     d="M 37.680628,400.35667 V 388.24504 H 399.68381 761.68698 v 12.11163 12.11164 H 399.68381 37.680628 Z"
     id="path45"
     transform="scale(0.08)" />
  <path
     style="fill:#28170b;fill-opacity:1;fill-rule:evenodd;stroke:#28170b;stroke-width:1.34574;stroke-opacity:1"
     d="M 29.50269,45.185698 C 24.113007,39.796016 24.661669,32.70682 30.835327,27.966836 32.501445,26.687631 113.62418,26.318061 400.0814,26.284665 l 367.11087,-0.0428 3.30317,3.303172 c 2.28058,2.280577 3.30317,4.79919 3.30317,8.13559 0,3.3364 -1.02259,5.855013 -3.30317,8.135591 l -3.30317,3.303171 H 400.31432 33.436382 Z"
     id="path46"
     transform="scale(0.08)" />
  <path
     style="fill:#28170b;fill-opacity:1;fill-rule:evenodd;stroke:#28170b;stroke-width:0.964362;stroke-opacity:1"
     d="m 705.91321,334.92657 c -1.95119,-1.32286 -3.86091,-3.69836 -4.52629,-5.63024 -1.23381,-3.58223 -1.74683,-38.75839 -0.64557,-44.26468 0.33788,-1.68937 1.87363,-4.3309 3.41279,-5.87006 5.21039,-5.21038 12.73337,-4.70657 17.69057,1.18474 l 2.39138,2.84199 v 23.08486 23.08487 l -3.1673,3.45613 c -4.27342,4.6631 -10.17923,5.48626 -15.15558,2.11239 z"
     id="path47"
     transform="scale(0.08)" />
  <path
     style="fill:#a05a2c;fill-opacity:1;fill-rule:evenodd;stroke:#28170b;stroke-width:0.649416;stroke-opacity:1"
     d="M 37.666116,737.73634 V 725.72215 H 399.71542 761.76473 v 12.01419 12.0142 H 399.71542 37.666116 Z"
     id="path50"
     transform="scale(0.08)" />
  <path
     style="fill:#a05a2c;fill-opacity:1;fill-rule:evenodd;stroke:#a05a2c;stroke-width:1.664;stroke-opacity:1"
     d="M 38.272033,568.25649 V 438.46438 H 399.36035 760.44866 v 17.36643 17.36643 l -310.75227,0.55271 c -341.34671,0.60712 -316.60771,-0.1769 -330.5751,10.47655 -7.06663,5.38998 -14.4547,15.57589 -17.4991,24.12594 -1.18301,3.32243 -2.468444,18.42284 -2.992669,35.15582 l -0.918937,29.33181 -8.41778,0.99696 c -15.808255,1.87226 -15.165884,-0.81576 -15.776153,66.01566 l -0.531416,58.19592 h -17.3566 -17.356602 z"
     id="path53"
     transform="scale(0.08)" />
  <path
     style="fill:#a05a2c;fill-opacity:1;fill-rule:evenodd;stroke:#a05a2c;stroke-width:1.664;stroke-opacity:1"
     d="m 727.16863,674.75259 v -23.29602 h 16.64002 16.64001 v 23.29602 23.29602 h -16.64001 -16.64002 z"
     id="path54"
     transform="scale(0.08)" />
  <path
     style="fill:#a05a2c;fill-opacity:1;fill-rule:evenodd;stroke:#a05a2c;stroke-width:0.812873;stroke-opacity:1"
     d="m 337.51208,701.3072 c -9.55307,-0.17682 -13.33136,-0.52254 -13.56151,-1.24091 -0.49619,-1.54877 -0.99837,-64.02263 -0.51071,-63.53497 0.23789,0.2379 0.65402,13.67494 0.92473,29.86011 l 0.49219,29.42758 0.14615,-22.96365 0.14614,-22.96366 h 37.39214 37.39215 v 24.79262 24.79262 l -37.59537,0.15048 c -31.12892,0.12461 -34.72915,0.24516 -20.93147,0.70085 9.16514,0.30269 26.26463,0.60076 37.99887,0.66237 l 21.33497,0.11204 0.20615,-109.46687 c 0.18169,-96.4763 0.35085,-109.51108 1.42546,-109.83942 0.98407,-0.30067 1.02328,-0.16475 0.20322,0.70451 -0.80248,0.85063 -1.01609,24.02716 -1.01609,110.24585 v 109.1688 l -25.40227,-0.18162 c -13.97125,-0.0999 -31.36139,-0.29192 -38.64475,-0.42673 z"
     id="path55"
     transform="scale(0.08)" />
  <path
     style="fill:#a05a2c;fill-opacity:1;fill-rule:evenodd;stroke:#a05a2c;stroke-width:1.44006;stroke-opacity:1"
     d="m 218.64465,387.01573 c 100.05775,-0.20413 263.36037,-0.20412 362.89472,2e-5 99.53436,0.20415 17.66892,0.37116 -181.92317,0.37115 -199.59209,-1e-5 -281.02928,-0.16704 -180.97155,-0.37117 z"
     id="path56"
     transform="scale(0.08)" />
  <path
     style="fill:#a05a2c;fill-opacity:1;fill-rule:evenodd;stroke:#a05a2c;stroke-width:0.493166;stroke-opacity:1"
     d="m 394.53273,436.69842 c 0,-0.32791 62.4338,-0.49317 186.31508,-0.49317 h 186.31507 l 2.58121,-3.08229 c 4.01549,-4.79499 4.7753,-8.74198 2.53953,-13.19218 -1.30074,-2.58907 -2.51143,-3.43133 -5.71235,-3.97399 -5.86808,-0.99483 -49.16269,-1.41749 -146.9083,-1.43418 -55.06197,-0.009 -128.24163,-0.16465 -162.62146,-0.34501 l -62.50878,-0.32791 v -12.74077 -12.74076 h 78.57803 c 43.21791,0 125.88485,-0.14778 183.7043,-0.3284 l 105.12628,-0.32839 v 12.65754 12.65754 l -104.42789,0.0974 -104.42788,0.0974 100.35927,0.33824 c 100.91645,0.34012 113.26872,0.5667 116.29824,2.13333 2.9456,1.52323 5.37903,6.9434 4.7289,10.53306 -0.4712,2.60172 -1.60197,4.65072 -4.41483,7.99981 l -2.4444,2.9104 -186.54001,0.0277 c -124.0497,0.0184 -186.54001,-0.1375 -186.54001,-0.46545 z"
     id="path57"
     transform="scale(0.08)" />
  <path
     style="fill:#a05a2c;fill-opacity:1;fill-rule:evenodd;stroke:#a05a2c;stroke-width:0.959921;stroke-opacity:1"
     d="M 574.99274,318.21385 V 275.0174 h 36.95697 36.95696 v 43.19645 43.19645 h -36.95696 -36.95697 z"
     id="path58"
     transform="scale(0.08)" />
  <path
     style="fill:#a05a2c;fill-opacity:1;fill-rule:evenodd;stroke:#a05a2c;stroke-width:1.75203;stroke-opacity:1"
     d="m 417.42107,412.98707 -21.46236,-0.49193 V 401.16087 389.8266 l 39.85867,-0.42245 c 21.92227,-0.23235 -24.0028,-0.83066 -102.05573,-1.32958 l -141.9144,-0.90712 168.19485,-0.42101 c 92.50717,-0.23156 220.82144,0.102 285.14283,0.74124 l 116.94798,1.16225 v 11.73202 11.73203 l -123.08008,1.27223 c -111.47606,1.15229 -157.56641,1.06929 -221.63176,-0.39914 z"
     id="path59"
     transform="scale(0.08)" />
  <path
     style="fill:#a05a2c;fill-opacity:1;fill-rule:evenodd;stroke:#a05a2c;stroke-width:0.723649;stroke-opacity:1"
     d="m 37.629742,400.42062 v -12.42107 l 153.594478,0.66178 c 84.47696,0.36397 159.61885,0.66187 166.98198,0.662 7.36313,1.2e-4 18.35354,0.0815 24.42315,0.18091 l 11.03564,0.18069 v 11.57838 11.57838 H 215.64737 37.629742 Z"
     id="path60"
     transform="scale(0.08)" />
  <path
     style="fill:#a05a2c;fill-opacity:1;fill-rule:evenodd;stroke:#a05a2c;stroke-width:1.54052;stroke-opacity:1"
     d="M 40.053581,206.43 V 51.607499 H 400.53581 761.01804 v 16.866703 16.866704 l -49.68184,0.548573 c -57.02926,0.6297 -58.47433,0.819269 -61.21605,8.030505 -0.7319,1.925073 -2.94215,3.775732 -4.91166,4.112574 -1.96951,0.336839 -68.91833,0.856324 -148.77516,1.154405 -128.60627,0.48005 -145.19423,0.276603 -145.19423,-1.78077 0,-4.722556 -5.48218,-9.215894 -12.42547,-10.184243 -3.75709,-0.523984 -22.77547,-0.952698 -42.26308,-0.952698 -39.16366,0 -43.82992,0.853583 -47.04066,8.605028 l -1.85958,4.489412 h -22.63562 -22.63562 l -2.57118,-5.391828 c -1.41415,-2.965506 -3.10232,-5.444869 -3.75149,-5.509695 -0.64918,-0.06483 -2.56679,-0.378967 -4.26137,-0.69809 -10.41546,-1.961437 -36.35315,-2.510575 -71.92058,-1.522663 -48.926298,1.358964 -45.052183,-0.822454 -45.19191,25.446454 -0.05183,9.7438 -0.238961,69.88195 -0.41585,133.64032 l -0.321617,115.9243 H 56.999327 40.053581 Z"
     id="path61"
     transform="scale(0.08)" />
  <path
     style="fill:#fcc56b;fill-opacity:1;fill-rule:evenodd;stroke:#fcc56b;stroke-width:1.15242;stroke-opacity:1"
     d="m 100.26078,674.7435 v -24.20087 h 43.21585 43.21585 v 24.20087 24.20088 h -43.21585 -43.21585 z"
     id="path70"
     transform="scale(0.08)" />
  <path
     style="fill:#fcc56b;fill-opacity:1;fill-rule:evenodd;stroke:#fcc56b;stroke-width:1.15242;stroke-opacity:1"
     d="m 262.75238,674.7435 v -24.20087 h 18.43876 18.43877 v 24.20087 24.20088 h -18.43877 -18.43876 z"
     id="path71"
     transform="scale(0.08)" />
  <path
     style="fill:#fcc56b;fill-opacity:1;fill-rule:evenodd;stroke:#fcc56b;stroke-width:1.15242;stroke-opacity:1"
     d="M 425.24399,643.62809 V 588.3118 h 24.77708 24.77709 v 55.31629 55.31629 h -24.77709 -24.77708 z"
     id="path72"
     transform="scale(0.08)" />
  <path
     style="fill:#fcc56b;fill-opacity:1;fill-rule:evenodd;stroke:#fcc56b;stroke-width:1.15242;stroke-opacity:1"
     d="m 425.24399,506.48979 v -4.60969 h 24.77708 24.77709 v 4.60969 4.60969 h -24.77709 -24.77708 z"
     id="path73"
     transform="scale(0.08)" />
  <path
     style="fill:#fcc56b;fill-opacity:1;fill-rule:evenodd;stroke:#fcc56b;stroke-width:1.15242;stroke-opacity:1"
     d="m 575.05894,612.51268 v -86.43171 h 11.52423 11.52422 v 86.43171 86.4317 h -11.52422 -11.52423 z"
     id="path74"
     transform="scale(0.08)" />
  <path
     style="fill:#fcc56b;fill-opacity:1;fill-rule:evenodd;stroke:#fcc56b;stroke-width:1.15242;stroke-opacity:1"
     d="M 525.50476,250.07573 V 137.71452 h 12.10044 12.10044 V 250.07573 362.43695 H 537.6052 525.50476 Z"
     id="path75"
     transform="scale(0.08)" />
  <path
     style="fill:#fcc56b;fill-opacity:1;fill-rule:evenodd;stroke:#fcc56b;stroke-width:1.15242;stroke-opacity:1"
     d="m 350.33651,275.42903 v -87.00791 h 12.10044 12.10044 l 0.004,26.21761 c 0.004,23.6171 0.21898,26.56965 2.16855,29.76673 5.94918,9.75596 19.92858,7.21325 23.20797,-4.22128 0.61869,-2.15727 1.1249,-14.68648 1.1249,-27.84268 v -23.92038 h 11.52423 11.52422 v 87.00791 87.00792 h -11.52422 -11.52423 v -18.15827 c 0,-9.98704 -0.50621,-19.9233 -1.1249,-22.08057 -2.42498,-8.45541 -9.80527,-12.19144 -17.62724,-8.92322 -6.95022,2.90399 -7.75358,5.90225 -7.75358,28.93743 v 20.22463 h -12.10044 -12.10044 z"
     id="path76"
     transform="scale(0.08)" />
  <path
     style="fill:#fcc56b;fill-opacity:1;fill-rule:evenodd;stroke:#fcc56b;stroke-width:1.70269;stroke-opacity:1"
     d="M 200.91718,262.21395 V 162.6067 h 23.83763 23.83764 v 99.60725 99.60725 h -23.83764 -23.83763 z"
     id="path77"
     transform="scale(0.08)" />
  <path
     style="fill:#e3dbdb;fill-opacity:1;fill-rule:evenodd;stroke:#e3dbdb;stroke-width:1.70853;stroke-opacity:1"
     d="m 213.56605,674.79065 v -23.1432 l 11.53256,0.5052 11.53257,0.50519 0.47672,22.638 0.47672,22.638 h -12.00928 -12.00929 z"
     id="path78"
     transform="scale(0.08)" />
  <path
     style="fill:#ff9955;fill-opacity:1;fill-rule:evenodd;stroke:#e3dbdb;stroke-width:0.581331;stroke-opacity:1"
     d="m 425.53459,550.52084 v -11.9173 h 24.70658 24.70659 v 11.9173 11.91729 h -24.70659 -24.70658 z"
     id="path79"
     transform="scale(0.08)" />
  <path
     style="fill:#ff9955;fill-opacity:1;fill-rule:evenodd;stroke:#ff9955;stroke-width:0.681786;stroke-opacity:1"
     d="m 212.71684,674.79741 -3e-4,-23.69205 12.06039,0.52654 c 6.63321,0.2896 12.12592,0.59641 12.20601,0.68179 0.0801,0.0854 0.37066,10.50986 0.6457,23.16551 l 0.50007,23.01026 h -12.70578 -12.70579 z"
     id="path80"
     transform="scale(0.08)" />
  <path
     style="fill:#ff9955;fill-opacity:1;fill-rule:evenodd;stroke:#ff9955;stroke-width:0.681786;stroke-opacity:1"
     d="m 426.11607,550.54196 v -11.59035 h 24.20339 24.2034 v 11.59035 11.59036 h -24.2034 -24.20339 z"
     id="path81"
     transform="scale(0.08)" />
  <path
     style="fill:#ff9955;fill-opacity:1;fill-rule:evenodd;stroke:#ff9955;stroke-width:0.681786;stroke-opacity:1"
     d="m 426.11607,550.54196 v -11.59035 h 24.20339 24.2034 v 11.59035 11.59036 h -24.2034 -24.20339 z"
     id="path82"
     transform="scale(0.08)" />
</svg>
